<?xml version="1.0" encoding="UTF-8" standalone="no"?>
<svg
   width="100%"
   height="100%"
   viewBox="0 0 444 353"
   version="1.1"
   xml:space="preserve"
   style="fill-rule:evenodd;clip-rule:evenodd;stroke-linejoin:round;stroke-miterlimit:2;"
   id="svg4"
   sodipodi:docname="logos.svg"
   inkscape:version="1.4.2 (f4327f4, 2025-05-13)"
   xmlns:inkscape="http://www.inkscape.org/namespaces/inkscape"
   xmlns:sodipodi="http://sodipodi.sourceforge.net/DTD/sodipodi-0.dtd"
   xmlns="http://www.w3.org/2000/svg"
   xmlns:svg="http://www.w3.org/2000/svg"><defs
   id="defs4" /><sodipodi:namedview
   id="namedview4"
   pagecolor="#ffffff"
   bordercolor="#000000"
   borderopacity="0.25"
   inkscape:showpageshadow="2"
   inkscape:pageopacity="0.0"
   inkscape:pagecheckerboard="0"
   inkscape:deskcolor="#d1d1d1"
   inkscape:zoom="2.2272247"
   inkscape:cx="342.12983"
   inkscape:cy="174.88132"
   inkscape:window-width="1920"
   inkscape:window-height="1009"
   inkscape:window-x="-8"
   inkscape:window-y="-8"
   inkscape:window-maximized="1"
   inkscape:current-layer="g4" />
    <g
   transform="matrix(0.1,0,0,-0.1,0,353)"
   id="g4">
        <path
   d="M2999,2720C2758,2690 2479,2558 2313,2395C2257,2341 2250,2330 2250,2296C2250,2266 2257,2251 2284,2224C2336,2172 2373,2176 2447,2241C2592,2370 2795,2472 2975,2505C3106,2530 3339,2521 3471,2487C3633,2445 3788,2362 3912,2252C3944,2224 3979,2199 3991,2195C4026,2184 4078,2199 4100,2227C4147,2287 4135,2336 4056,2407C3896,2551 3688,2656 3465,2705C3383,2724 3096,2733 2999,2720Z"
   style="fill-rule:nonzero;"
   id="path1" />
        <path
   d="M1567,2666C1552,2650 1534,2597 1508,2489C1474,2349 1321,1708 1268,1483L1246,1390L839,1390C615,1390 424,1387 415,1384C396,1376 370,1329 370,1300C370,1288 383,1265 399,1249L428,1220L874,1220C1131,1220 1329,1224 1344,1230C1358,1235 1374,1248 1379,1259C1391,1280 1583,2066 1595,2140C1599,2165 1606,2191 1610,2198C1614,2206 1645,2068 1679,1893C1815,1205 1949,534 1955,518C1959,509 1975,496 1991,490C2032,473 2064,496 2084,557C2092,583 2147,760 2206,950C2264,1140 2315,1299 2317,1303C2320,1308 2338,1285 2357,1251C2411,1155 2389,1159 2844,1162L3236,1165L3278,1193C3329,1226 3360,1284 3360,1345C3360,1488 3196,1570 3083,1484C3046,1456 3011,1391 3010,1353L3010,1330L2769,1330C2633,1330 2521,1334 2511,1340C2501,1345 2467,1396 2435,1452C2360,1585 2347,1600 2298,1600C2248,1600 2226,1577 2205,1504C2196,1471 2154,1339 2113,1210C2048,1005 2030,953 2030,971C2030,974 2003,1113 1970,1280C1936,1448 1864,1815 1809,2095C1755,2376 1705,2620 1699,2638C1680,2694 1608,2710 1567,2666Z"
   style="fill-rule:nonzero;fill:#ff0000"
   id="path2" />
        <path
   d="M3066,2320C2852,2286 2584,2146 2535,2043C2501,1971 2551,1894 2630,1896C2658,1897 2681,1909 2730,1948C3003,2169 3364,2173 3630,1958C3664,1931 3703,1905 3717,1899C3774,1877 3850,1935 3850,2000C3850,2090 3635,2237 3420,2295C3313,2324 3159,2334 3066,2320Z"
   style="fill-rule:nonzero;"
   id="path3" />
        <path
   d="M3071,1904C2950,1878 2819,1793 2805,1731C2791,1664 2857,1591 2921,1604C2936,1607 2970,1625 2995,1644C3046,1684 3123,1710 3185,1710C3247,1710 3324,1684 3375,1644C3400,1625 3434,1607 3449,1604C3514,1591 3579,1664 3564,1733C3550,1796 3423,1878 3295,1905C3210,1923 3155,1923 3071,1904Z"
   style="fill-rule:nonzero;"
   id="path4" />
    <path
   style="fill:#000000;stroke-width:11.3777"
   id="path5"
   transform="scale(1,-1)"
   sodipodi:type="arc"
   sodipodi:cx="3184.7354"
   sodipodi:cy="-1343.6315"
   sodipodi:rx="176.58316"
   sodipodi:ry="175.96567"
   sodipodi:start="0"
   sodipodi:end="6.2295983"
   sodipodi:arc-type="slice"
   d="m 3361.3185,-1343.6315 a 176.58316,175.96567 0 0 1 -174.2176,175.9499 176.58316,175.96567 0 0 1 -178.8853,-171.2357 176.58316,175.96567 0 0 1 169.4247,-180.5377 176.58316,175.96567 0 0 1 183.4247,166.3986 l -176.3296,9.4249 z" /><rect
   style="fill:#000000;stroke-width:10"
   id="rect7"
   width="143.88971"
   height="43.292854"
   x="3167.1482"
   y="-1363.3105"
   transform="scale(1,-1)" /><rect
   style="fill:#000000;stroke-width:10"
   id="rect8"
   width="54.071777"
   height="13.005493"
   x="3307.2163"
   y="-1354.6815"
   transform="scale(1,-1)"
   ry="2.2265625" /><path
   style="fill:#000000;stroke-width:10"
   d="m 3123.052,1180.4206 c 9.2576,-17.1265 112.9203,-15.4986 112.9203,-15.4986 l 52.6215,35.4686 20.9765,18.6328 z"
   id="path8" /></g>
</svg>
